<?xml version="1.0" encoding="UTF-8"?>
<svg xmlns="http://www.w3.org/2000/svg" version="1.1" viewBox="0 0 1000 1350">
  <!-- Generator: Adobe Illustrator 29.8.2, SVG Export Plug-In . SVG Version: 2.1.1 Build 3)  -->
  <defs>
    <style>
      .st0 {
        fill: #231f20;
      }

      .st1 {
        fill: #fff;
      }

      .st2 {
        fill: #4869b2;
      }

      .st3 {
        display: none;
      }
    </style>
  </defs>
  <g id="basics" class="st3">
    <rect class="st0" y="350" width="1000" height="1000"/>
    <g>
      <polygon class="st1" points="330 730 330 1020 498.1 1020 330 730"/>
      <polygon class="st1" points="670 730 670 1020 501.9 1020 670 730"/>
    </g>
    <path class="st1" d="M629.08,500h-39.58l-87.53,151h-3.94l-87.53-151H150v700h700V500h-220.92ZM820,1170H180v-640h208.31l110.25,190.2h2.88l110.25-190.2h208.31v640Z"/>
    <polygon class="st1" points="499.54 420 500.46 420 541.03 350 458.97 350 499.54 420"/>
    <rect class="st0" x="300" y="1124" width="400" height="134"/>
    <rect class="st1" x="342.15" y="1181" width="150" height="30" transform="translate(967.88 55.33) rotate(45)"/>
    <rect class="st1" x="342.15" y="1181" width="150" height="30" transform="translate(1557.81 1746.73) rotate(135)"/>
    <rect class="st1" x="427" y="1181" width="150" height="30" transform="translate(992.73 -4.67) rotate(45)"/>
    <rect class="st1" x="427" y="1181" width="150" height="30" transform="translate(1702.67 1686.73) rotate(135)"/>
    <rect class="st1" x="511.85" y="1181" width="150" height="30" transform="translate(1017.58 -64.67) rotate(45)"/>
    <rect class="st1" x="511.85" y="1181" width="150" height="30" transform="translate(1847.52 1626.73) rotate(135)"/>
    <g>
      <path class="st0" d="M300.95,117.07c-95.66-39.26-205.03,6.47-244.29,102.13-39.26,95.66,6.47,205.03,102.13,244.29,3.03,1.24,6.38,2.41,10.03,3.52h494.99c-23.6-27.28-271.78-312.56-362.85-349.93ZM192.76,350.52c-28.98-17.82-41.67-54.62-28.34-87.1,10.95-26.69,36.67-43.94,65.52-43.94,8.91,0,17.71,1.71,26.16,5.09,3.77,1.93,39.69,21.83,142.28,125.95h-205.62Z"/>
      <path class="st0" d="M699.05,117.07c95.66-39.26,205.03,6.47,244.29,102.13,39.26,95.66-6.47,205.03-102.13,244.29-3.03,1.24-6.38,2.41-10.03,3.52h-494.99c23.6-27.28,271.78-312.56,362.85-349.93ZM807.24,350.52c28.98-17.82,41.67-54.62,28.34-87.1-10.95-26.69-36.67-43.94-65.52-43.94-8.91,0-17.71,1.71-26.16,5.09-3.77,1.93-39.69,21.83-142.28,125.95h205.62Z"/>
    </g>
  </g>
  <g id="final">
    <g>
      <rect class="st2" x="444.57" y="1181" width="30" height="30" transform="translate(-711.09 675.27) rotate(-45)"/>
      <rect class="st2" x="529.43" y="1181" width="30" height="30" transform="translate(-686.24 735.27) rotate(-45)"/>
      <path class="st2" d="M947.58,350c13.89-41.21,13.57-87.42-4.24-130.81-39.26-95.66-148.63-141.38-244.29-102.13-44.02,18.06-124.73,94.03-199.05,170.8-74.32-76.76-155.04-152.73-199.05-170.8-95.66-39.26-205.03,6.47-244.29,102.13-17.81,43.39-18.13,89.6-4.24,130.81H0v1000h1000V350h-52.42ZM743.9,224.57c8.45-3.38,17.25-5.09,26.16-5.09,28.85,0,54.57,17.25,65.52,43.94,13.2,32.18.86,68.57-27.54,86.58h-205.91c102.19-103.66,138-123.5,141.76-125.43ZM164.42,263.42c10.95-26.69,36.67-43.94,65.52-43.94,8.91,0,17.71,1.71,26.16,5.09,3.77,1.93,39.58,21.77,141.76,125.43h-205.91c-28.4-18.01-40.74-54.41-27.54-86.58ZM650.49,1238.43l-21.21,21.21-42.43-42.43-21.21,21.21-21.21,21.21-21.21-21.21-21.21-21.21-21.21,21.21-21.21,21.21-21.21-21.21-21.21-21.21-42.43,42.43-21.21-21.21,42.43-42.43-42.43-42.43,21.21-21.21,42.43,42.43,21.21-21.21,21.21-21.21,21.21,21.21,21.21,21.21,21.21-21.21,21.21-21.21,21.21,21.21,21.21,21.21,42.43-42.43,21.21,21.21-42.43,42.43,42.43,42.43ZM330,1020v-290l168.1,290h-168.1ZM670,1020h-168.1l168.1-290v290ZM850,1200h-150v-30h120v-640h-208.31l-110.25,190.2h-2.88l-110.25-190.2h-208.31v640h120v30h-150V500h260.5l87.53,151h3.94l87.53-151h260.5v700Z"/>
    </g>
  </g>
</svg>